<svg height="512pt" viewBox="-39 0 512 512.00084" width="512pt" xmlns="http://www.w3.org/2000/svg"><path d="m358.480469 132.949219 43.042969-28.640625c19.183593-12.761719 28.777343-35.832032 24.308593-58.433594-4.472656-22.605469-22.132812-40.28125-44.730469-44.777344-22.597656-4.496094-45.675781 5.074219-58.460937 24.242188l-8.558594 12.785156c-3.222656 4.808594-8.628906 7.695312-14.421875 7.695312h-165.75c-5.789062 0-11.199218-2.886718-14.421875-7.695312l-8.589843-12.785156c-12.785157-19.167969-35.863282-28.738282-58.464844-24.242188-22.597656 4.496094-40.253906 22.171875-44.726563 44.777344-4.472656 22.601562 5.125 45.671875 24.308594 58.433594l43.042969 28.640625zm0 0" fill="#7f6e5d"/><path d="m65.773438 93.722656c-1.710938 0-3.386719-.507812-4.808594-1.457031l-14.507813-9.652344c-2.410156-1.601562-4.589843-3.523437-6.476562-5.71875-1.621094-1.910156-3-4.019531-4.105469-6.273437-.917969-1.875-1.644531-3.839844-2.167969-5.867188-.410156-1.566406-.699219-3.167968-.867187-4.78125-.140625-1.625-.15625-3.257812-.042969-4.882812.113281-2.089844.4375-4.164063.972656-6.1875.636719-2.421875 1.578125-4.757813 2.800781-6.945313 2.84375-5.054687 7.015626-9.242187 12.0625-12.105469 2.1875-1.214843 4.519532-2.152343 6.941407-2.792968 3.609375-.941406 7.355469-1.234375 11.066406-.867188 1.613281.167969 3.210937.457032 4.78125.867188 2.03125.523437 4.007813 1.253906 5.890625 2.179687 2.246094 1.097657 4.339844 2.472657 6.242188 4.09375 2.203124 1.882813 4.132812 4.0625 5.734374 6.476563 1.71875 2.578125 1.929688 5.882812.554688 8.660156-1.375 2.78125-4.128906 4.613281-7.222656 4.8125s-6.0625-1.269531-7.78125-3.851562c-.699219-1.074219-1.550782-2.042969-2.523438-2.878907-.8125-.6875-1.703125-1.269531-2.65625-1.738281-.832031-.40625-1.703125-.722656-2.601562-.945312-.714844-.1875-1.4375-.320313-2.171875-.390626-.722657-.054687-1.453125-.054687-2.175781 0-.921876.046876-1.835938.191407-2.726563.425782-1.019531.265625-2 .664062-2.917969 1.179687-2.25 1.28125-4.117187 3.144531-5.394531 5.398438-.519531.917969-.917969 1.894531-1.179687 2.914062-.234376.886719-.375 1.789063-.425782 2.699219-.042968.738281-.027344 1.480469.042969 2.214844.066406.722656.195313 1.441406.382813 2.144531.226562.894531.546874 1.769531.953124 2.601563.464844.949218 1.050782 1.839843 1.734376 2.648437.839843.976563 1.808593 1.832031 2.882812 2.542969l14.527344 9.597656c3.164062 2.125 4.570312 6.070312 3.464844 9.71875-1.109376 3.652344-4.46875 6.148438-8.28125 6.160156zm0 0" fill="#cbb292"/><path d="m433.535156 485.734375c-3.695312-178.367187-62.480468-328.28125-93.632812-395.59375-15.132813-32.96875-44.289063-57.382813-79.40625-66.484375-14.289063-3.742188-28.960938-5.855469-43.726563-6.300781-14.769531.445312-29.4375 2.558593-43.730469 6.300781-35.113281 9.101562-64.269531 33.515625-79.402343 66.484375-31.128907 67.3125-89.9375 217.226563-93.63281275 395.59375-.06640625 4.640625 1.73437475 9.117187 4.99609375 12.421875s7.714844 5.167969 12.359375 5.167969h398.75c4.65625.019531 9.125-1.835938 12.402344-5.140625 3.277343-3.308594 5.085937-7.796875 5.023437-12.449219zm0 0" fill="#805333"/><path d="m399.007812 486.054688c-3.515624-133.097657-30.152343-264.570313-78.71875-388.539063-11.105468-30.824219-35.695312-54.878906-66.761718-65.292969-11.925782-3.664062-24.285156-5.746094-36.757813-6.1875-12.472656.441406-24.832031 2.523438-36.761719 6.1875-31.0625 10.414063-55.65625 34.46875-66.757812 65.292969-48.570312 123.96875-75.207031 255.441406-78.71875 388.539063-.351562 4.230468.988281 8.425781 3.734375 11.664062 2.742187 3.238281 6.660156 5.253906 10.886719 5.605469h335.230468c4.230469-.351563 8.148438-2.367188 10.890626-5.605469 2.742187-3.238281 4.085937-7.433594 3.734374-11.664062zm0 0" fill="#cb8252"/><path d="m367.765625 93.722656c-3.824219.003906-7.203125-2.496094-8.316406-6.15625-1.109375-3.664062.308593-7.617187 3.492187-9.742187l14.507813-9.675781c1.082031-.710938 2.0625-1.570313 2.90625-2.550782 1.273437-1.507812 2.183593-3.289062 2.65625-5.207031.1875-.699219.320312-1.414063.390625-2.132813.074218-.738281.089844-1.484374.054687-2.222656-.050781-.914062-.195312-1.820312-.425781-2.707031-.269531-1.027344-.667969-2.011719-1.191406-2.933594-.628906-1.128906-1.414063-2.160156-2.332032-3.0625-.90625-.921875-1.9375-1.710937-3.0625-2.34375-.925781-.511719-1.90625-.90625-2.925781-1.171875-.886719-.234375-1.792969-.378906-2.707031-.425781-.726562-.0625-1.453125-.0625-2.179688 0-.730468.070313-1.457031.203125-2.167968.390625-.898438.226562-1.773438.542969-2.605469.945312-.933594.472657-1.808594 1.054688-2.601563 1.734376-.976562.839843-1.832031 1.8125-2.535156 2.890624-2.65625 3.992188-8.046875 5.070313-12.035156 2.414063-3.992188-2.660156-5.070312-8.046875-2.414062-12.035156 1.605468-2.417969 3.539062-4.601563 5.746093-6.484375 1.898438-1.617188 3.988281-2.992188 6.230469-4.085938 1.882812-.925781 3.859375-1.65625 5.890625-2.179687 1.570313-.410157 3.167969-.699219 4.78125-.867188 1.625-.160156 3.257813-.191406 4.886719-.105469 2.085937.121094 4.15625.445313 6.179687.972657 2.421875.640625 4.753907 1.578125 6.941407 2.792969 5.085937 2.859374 9.289062 7.0625 12.148437 12.152343 1.222656 2.183594 2.167969 4.519531 2.804687 6.941407.523438 2.019531.84375 4.085937.964844 6.167968.089844 1.617188.054688 3.234375-.105468 4.84375-.164063 1.628906-.453126 3.242188-.867188 4.824219-.535156 2.019531-1.261719 3.984375-2.171875 5.867187-1.101563 2.25-2.484375 4.351563-4.113281 6.257813-1.882813 2.203125-4.066406 4.136719-6.480469 5.742187l-14.492187 9.660157c-1.429688.972656-3.121094 1.496093-4.851563 1.492187zm0 0" fill="#cbb292"/><path d="m216.769531 364.476562c20.269531-.429687 40.160157-5.59375 58.082031-15.074218 18.351563-10.480469 29.394532-30.253906 28.695313-51.375v-14.75c0-55.785156-38.847656-101.039063-86.777344-101.039063-47.929687 0-86.78125 45.253907-86.78125 101.070313v14.753906c-.699219 21.121094 10.347657 40.894531 28.699219 51.375 17.921875 9.46875 37.8125 14.621094 58.082031 15.039062zm0 0" fill="#83604d"/><path d="m216.769531 355.796875c16.40625-.445313 32.417969-5.148437 46.460938-13.640625 15.199219-10.460938 23.886719-28.050781 22.960937-46.480469v-13.3125c0-50.503906-31.082031-91.445312-69.421875-91.445312-38.339843 0-69.425781 40.941406-69.425781 91.445312v13.3125c-.925781 18.429688 7.765625 36.019531 22.964844 46.480469 14.042968 8.492188 30.054687 13.195312 46.460937 13.640625zm0 0" fill="#af8066"/><path d="m156.023438 173.558594c0 14.378906-11.65625 26.035156-26.035157 26.035156-14.378906 0-26.03125-11.65625-26.03125-26.035156 0-14.375 11.652344-26.03125 26.03125-26.03125 14.378907 0 26.035157 11.65625 26.035157 26.03125zm0 0" fill="#fff"/><path d="m138.667969 173.558594c0 4.792968-3.886719 8.679687-8.679688 8.679687s-8.675781-3.886719-8.675781-8.679687c0-4.792969 3.882812-8.675782 8.675781-8.675782s8.679688 3.882813 8.679688 8.675782zm0 0" fill="#2c2f38"/><path d="m329.582031 173.558594c0 14.378906-11.65625 26.035156-26.035156 26.035156-14.375 0-26.03125-11.65625-26.03125-26.035156 0-14.375 11.65625-26.03125 26.03125-26.03125 14.378906 0 26.035156 11.65625 26.035156 26.03125zm0 0" fill="#fff"/><path d="m312.226562 173.558594c0 4.792968-3.886718 8.679687-8.679687 8.679687-4.789063 0-8.675781-3.886719-8.675781-8.679687 0-4.792969 3.886718-8.675782 8.675781-8.675782 4.792969 0 8.679687 3.882813 8.679687 8.675782zm0 0" fill="#2c2f38"/><path d="m216.769531 260.339844c8.214844.304687 16.210938-2.675782 22.222657-8.277344 4.957031-5.128906 5.09375-13.21875.3125-18.511719l-10.046876-10.960937c-3.160156-3.585938-7.707031-5.644532-12.488281-5.644532s-9.328125 2.058594-12.488281 5.644532l-10.074219 10.960937c-4.78125 5.292969-4.644531 13.382813.3125 18.511719 6.019531 5.609375 14.027344 8.589844 22.25 8.277344zm0 0" fill="#2c2f38"/><g fill="#805333"><path d="m121.3125 121.492188c-4.03125.007812-7.535156-2.757813-8.464844-6.679688-.925781-3.921875.96875-7.96875 4.574219-9.765625l17.359375-8.675781c2.773438-1.386719 6.078125-1.1875 8.664062.523437 2.585938 1.710938 4.066407 4.671875 3.878907 7.765625-.1875 3.097656-2.011719 5.855469-4.785157 7.242188l-17.355468 8.679687c-1.203125.597657-2.527344.910157-3.871094.910157zm0 0"/><path d="m312.226562 121.492188c-1.34375 0-2.667968-.3125-3.871093-.910157l-17.355469-8.679687c-4.289062-2.140625-6.03125-7.355469-3.886719-11.644532 2.140625-4.289062 7.355469-6.03125 11.644531-3.886718l17.355469 8.675781c3.609375 1.796875 5.503907 5.84375 4.574219 9.765625-.925781 3.921875-4.429688 6.6875-8.460938 6.679688zm0 0"/><path d="m120.277344 512c-17.640625.003906-34.441406-7.539062-46.167969-20.722656-11.722656-13.183594-17.25-30.753906-15.183594-48.273438l10.414063-88.222656c.628906-4.695312 4.910156-8.015625 9.617187-7.460938 4.703125.550782 8.09375 4.777344 7.617188 9.492188l-10.386719 88.21875c-2.011719 16.417969 5.265625 32.59375 18.882812 41.980469 13.621094 9.382812 31.328126 10.425781 45.953126 2.703125 14.625-7.726563 23.75-22.933594 23.675781-39.476563v-42.371093c0-4.792969 3.886719-8.679688 8.679687-8.679688 4.792969 0 8.679688 3.886719 8.679688 8.679688v42.355468c-.042969 34.101563-27.679688 61.734375-61.78125 61.777344zm0 0"/><path d="m313.257812 512c-34.101562-.042969-61.734374-27.675781-61.777343-61.777344v-42.355468c0-4.792969 3.886719-8.679688 8.679687-8.679688 4.792969 0 8.675782 3.886719 8.675782 8.679688v42.355468c-.070313 16.539063 9.050781 31.75 23.679687 39.472656 14.625 7.726563 32.332031 6.683594 45.949219-2.703124 13.621094-9.382813 20.898437-25.558594 18.886718-41.976563l-10.414062-88.21875c-.417969-3.105469.875-6.195313 3.375-8.085937 2.503906-1.886719 5.828125-2.277344 8.699219-1.023438 2.871093 1.253906 4.84375 3.960938 5.160156 7.078125l10.414063 88.21875c2.0625 17.519531-3.457032 35.085937-15.175782 48.269531-11.714844 13.1875-28.511718 20.738282-46.152344 20.746094zm0 0"/></g><path d="m251.480469 295.050781c0 19.171875-15.539063 34.710938-34.710938 34.710938s-34.710937-15.539063-34.710937-34.710938zm0 0" fill="#fff"/><path d="m216.769531 338.441406c-23.953125-.027344-43.363281-19.4375-43.390625-43.390625 0-4.792969 3.886719-8.675781 8.679688-8.675781h69.421875c4.792969 0 8.679687 3.882812 8.679687 8.675781-.03125 23.953125-19.441406 43.363281-43.390625 43.390625zm-24.550781-34.710937c3.671875 10.410156 13.511719 17.371093 24.550781 17.371093 11.039063 0 20.875-6.960937 24.550781-17.371093zm0 0" fill="#83604d"/></svg>