<?xml version="1.0" encoding="iso-8859-1"?>
<!-- Generator: Adobe Illustrator 21.0.0, SVG Export Plug-In . SVG Version: 6.00 Build 0)  -->
<svg xmlns="http://www.w3.org/2000/svg" xmlns:xlink="http://www.w3.org/1999/xlink" version="1.1" id="Capa_1" x="0px" y="0px" viewBox="0 0 512.002 512.002" style="enable-background:new 0 0 512.002 512.002;" xml:space="preserve" width="512" height="512">
<g>
	<g>
		<path style="fill-rule:evenodd;clip-rule:evenodd;fill:#E1E3E8;" d="M296.844,152.399c9.187,9.729,22.205,15.801,36.642,15.801    c25.789,0,44.628-8.511,63.259,23.759c9.831,17.028,9.261,37.202,0.269,53.178c-18.332-0.199-36.09-9.793-45.921-26.821    l-0.268-0.473v54.935c0,52.154-42.671,94.824-94.824,94.824c-52.153,0-94.824-42.671-94.824-94.824v-54.935l-0.268,0.473    c-9.831,17.028-27.589,26.622-45.921,26.821c-8.993-15.976-9.562-36.151,0.269-53.178c9.831-17.028,27.588-26.622,45.92-26.822    c5.406,1.981,11.246,3.063,17.339,3.063c14.437,0,27.454-6.072,36.642-15.801C238.176,173.357,273.826,173.357,296.844,152.399    L296.844,152.399z M330.324,427.12c11.874,1.901,24.452-0.114,35.677-6.595c9.619-5.553,16.894-13.607,21.48-22.865    c4.71-9.509,6.582-20.289,5.242-30.938c21.019,2.645,42.547-7.224,53.804-26.722c11.257-19.497,9.04-43.076-3.76-59.956    c19.525-8.219,33.235-27.53,33.235-50.044s-13.709-41.825-33.235-50.044c12.8-16.88,15.017-40.459,3.76-59.956    c-11.257-19.498-32.785-29.367-53.804-26.722c2.645-21.019-7.224-42.547-26.722-53.804c-19.497-11.257-43.076-9.04-59.956,3.76    C297.826,23.709,278.515,10,256.001,10c-22.514,0-41.825,13.709-50.044,33.234c-16.88-12.8-40.459-15.017-59.956-3.76    c-19.497,11.257-29.367,32.785-26.722,53.804C98.26,90.633,76.732,100.502,65.475,120c-11.257,19.497-9.04,43.076,3.76,59.956    C49.71,188.175,36.001,207.486,36.001,230s13.709,41.825,33.234,50.044c-12.8,16.88-15.017,40.459-3.76,59.956    c11.257,19.498,32.785,29.367,53.804,26.722c-1.34,10.649,0.532,21.43,5.242,30.938c4.586,9.259,11.861,17.312,21.48,22.865    c11.225,6.481,23.803,8.496,35.677,6.595c8.75-1.399,17.118-4.924,24.279-10.355c8.219,19.525,27.53,33.235,50.044,33.235    c22.514,0,41.824-13.709,50.044-33.235C313.206,422.196,321.574,425.722,330.324,427.12z"/>
		<path style="fill-rule:evenodd;clip-rule:evenodd;fill:#F2D0A4;" d="M333.486,168.2c-14.437,0-27.454-6.072-36.642-15.801    c-23.018,20.957-58.668,20.957-81.686,0c-9.187,9.729-22.205,15.801-36.642,15.801c-6.093,0-11.933-1.081-17.339-3.063    c-18.332,0.199-36.089,9.794-45.92,26.822c-9.831,17.028-9.261,37.202-0.269,53.178c18.332-0.199,36.09-9.793,45.921-26.821    l0.268-0.473v54.935c0,52.154,42.671,94.824,94.824,94.824c52.153,0,94.824-42.671,94.824-94.824v-54.935l0.268,0.473    c9.831,17.028,27.589,26.622,45.921,26.821c8.993-15.976,9.562-36.151-0.269-53.178C378.114,159.689,359.275,168.2,333.486,168.2z    "/>
		<path style="fill-rule:evenodd;clip-rule:evenodd;fill:#F2D0A4;" d="M181.678,427.122c-11.874,1.899-24.452-0.115-35.677-6.596    c-9.619-5.553-16.894-13.607-21.48-22.865V462h53.814L181.678,427.122z"/>
		<polygon style="fill-rule:evenodd;clip-rule:evenodd;fill:#858FA6;" points="178.335,462 124.521,462 124.521,502.002     174.501,502.002   "/>
		<path style="fill-rule:evenodd;clip-rule:evenodd;fill:#F2D0A4;" d="M330.324,427.12l3.343,34.88h53.814v-64.34    c-4.586,9.259-11.861,17.312-21.48,22.865C354.776,427.007,342.197,429.021,330.324,427.12z"/>
		<polygon style="fill-rule:evenodd;clip-rule:evenodd;fill:#858FA6;" points="387.481,462 333.667,462 337.501,502.002     387.481,502.002   "/>
	</g>
	<g>
		<path d="M486.001,230c0-22.015-11.129-42.102-29.115-53.827c9.714-19.147,9.308-42.108-1.7-61.173    c-11.007-19.067-30.687-30.898-52.127-32.058c-1.161-21.439-12.993-41.121-32.058-52.128    c-19.065-11.007-42.025-11.413-61.173-1.699C298.103,11.129,278.016,0,256.001,0c-22.018,0-42.108,11.133-53.833,29.124    c-3.119-1.575-6.37-2.897-9.735-3.956c-5.27-1.658-10.882,1.271-12.54,6.54c-1.657,5.269,1.271,10.882,6.54,12.54    c4.887,1.537,9.423,3.877,13.482,6.955c2.461,1.867,5.647,2.49,8.63,1.691c2.983-0.799,5.43-2.933,6.628-5.78    C222.107,30.643,238.133,20,256.001,20s33.894,10.643,40.827,27.114c1.198,2.847,3.645,4.98,6.629,5.78    c2.981,0.8,6.169,0.175,8.63-1.691c14.24-10.798,33.44-12.002,48.915-3.068s24.031,26.164,21.8,43.896    c-0.386,3.064,0.667,6.136,2.851,8.32c2.185,2.184,5.254,3.237,8.32,2.851c17.731-2.232,34.961,6.325,43.895,21.8    c8.934,15.474,7.73,34.674-3.068,48.914c-1.866,2.461-2.49,5.646-1.691,8.63c0.799,2.983,2.933,5.43,5.779,6.628    c16.471,6.934,27.114,22.959,27.114,40.827s-10.643,33.894-27.114,40.827c-2.847,1.198-4.98,3.645-5.78,6.628    c-0.799,2.984-0.175,6.169,1.691,8.63c3.078,4.06,5.418,8.596,6.955,13.482c1.343,4.271,5.285,7.003,9.537,7.003    c0.994,0,2.005-0.149,3.003-0.463c5.269-1.657,8.196-7.271,6.54-12.54c-1.059-3.365-2.38-6.617-3.956-9.735    C474.868,272.108,486.001,252.018,486.001,230z"/>
		<path d="M409.117,356.084c-4.997,1.109-10.093,1.351-15.146,0.715c-3.069-0.385-6.136,0.666-8.32,2.851    c-2.184,2.184-3.236,5.255-2.851,8.319c1.098,8.724-0.421,17.325-4.086,24.878c-0.106,0.192-0.197,0.392-0.29,0.591    c-3.8,7.544-9.763,14.003-17.424,18.426c-8.861,5.116-18.943,6.901-28.616,5.47c-0.34-0.072-0.686-0.124-1.037-0.16    c-6.852-1.18-13.467-3.985-19.262-8.379c-2.461-1.866-5.647-2.491-8.63-1.691c-2.984,0.799-5.431,2.933-6.629,5.78    C289.895,429.357,273.869,440,256.001,440s-33.894-10.643-40.827-27.114c-1.198-2.847-3.645-4.98-6.629-5.78    c-2.984-0.801-6.17-0.176-8.63,1.691c-5.794,4.394-12.41,7.198-19.262,8.379c-0.351,0.036-0.697,0.088-1.037,0.16    c-9.673,1.431-19.755-0.355-28.616-5.47c-7.662-4.424-13.625-10.883-17.425-18.428c-0.093-0.198-0.184-0.397-0.289-0.588    c-3.665-7.553-5.184-16.154-4.086-24.879c0.386-3.064-0.667-6.136-2.851-8.32c-2.184-2.184-5.25-3.232-8.32-2.851    c-17.734,2.233-34.961-6.326-43.895-21.8c-8.934-15.474-7.73-34.674,3.068-48.915c1.866-2.461,2.49-5.646,1.691-8.63    c-0.799-2.983-2.933-5.43-5.779-6.628C56.644,263.894,46.001,247.868,46.001,230c0-17.868,10.643-33.894,27.114-40.827    c2.847-1.199,4.98-3.645,5.779-6.628c0.799-2.984,0.175-6.169-1.691-8.63c-10.798-14.24-12.002-33.44-3.068-48.914    s26.167-24.03,43.895-21.8c3.064,0.382,6.136-0.667,8.32-2.851s3.236-5.255,2.851-8.32c-0.636-5.051-0.395-10.147,0.716-15.146    c1.198-5.392-2.202-10.733-7.593-11.931c-5.393-1.198-10.733,2.202-11.931,7.592c-0.765,3.44-1.245,6.913-1.439,10.396    C87.511,84.1,67.824,95.932,56.815,115c-11.008,19.065-11.414,42.025-1.7,61.173C37.13,187.898,26.001,207.985,26.001,230    s11.129,42.102,29.115,53.827c-9.714,19.147-9.308,42.108,1.7,61.173c11.008,19.067,30.687,30.898,52.127,32.058    c0.433,7.998,2.353,15.751,5.578,22.901v102.043c0,5.523,4.477,10,10,10h49.98c5.153,0,9.463-3.916,9.955-9.046l3.827-39.932    l0-0.002l2.656-27.712c3.847-1.11,7.609-2.585,11.235-4.425C213.899,448.871,233.986,460,256.001,460s42.102-11.129,53.827-29.115    c3.626,1.84,7.389,3.315,11.235,4.425l2.655,27.707c0,0.004,0.001,0.008,0.001,0.012l3.826,39.928    c0.492,5.13,4.801,9.046,9.955,9.046h49.98c5.523,0,10-4.477,10-10V399.959c3.226-7.153,5.146-14.91,5.579-22.911    c3.484-0.195,6.957-0.675,10.396-1.439c5.391-1.198,8.791-6.54,7.592-11.931C419.85,358.286,414.511,354.886,409.117,356.084z     M170.612,437.768L169.248,452h-34.727v-27.098c2.055,1.541,4.215,2.975,6.48,4.283    C150.248,434.524,160.412,437.362,170.612,437.768z M134.521,492.002V472h32.81l-1.917,20.001H134.521z M371.001,429.186    c2.265-1.308,4.425-2.742,6.48-4.283V452h-34.726l-1.364-14.233C351.591,437.362,361.754,434.524,371.001,429.186z     M346.588,492.002L344.671,472h32.81v20.001H346.588z"/>
		<path d="M106.597,186.959c-11.191,19.383-11.314,43.556-0.323,63.083c1.791,3.182,5.175,5.155,8.823,5.094    c13.093-0.142,25.661-4.363,36.08-11.715v29.356c0,57.8,47.024,104.824,104.824,104.824c57.8,0,104.824-47.023,104.824-104.824    v-29.356c10.419,7.351,22.988,11.573,36.08,11.715c3.668,0.062,7.032-1.913,8.823-5.094c10.992-19.528,10.868-43.7-0.323-63.083    c-18.377-31.831-39.157-30.535-59.258-29.279c-4.097,0.255-8.333,0.52-12.662,0.52c-11.227,0-21.658-4.499-29.372-12.667    c-3.743-3.963-9.971-4.198-14.003-0.528c-19.127,17.415-49.094,17.415-68.221,0c-4.031-3.67-10.259-3.434-14.003,0.528    c-7.714,8.168-18.145,12.667-29.372,12.667c-4.783,0-9.459-0.825-13.897-2.452c-1.137-0.417-2.341-0.619-3.55-0.61    C138.661,155.382,117.788,167.575,106.597,186.959z M123.917,196.959c7.399-12.815,20.974-21.048,35.716-21.773    c6.078,2,12.42,3.014,18.883,3.014c13.437,0,26.519-4.552,37.047-12.71c11.764,8.193,25.827,12.627,40.438,12.627    s28.674-4.434,40.438-12.627c10.528,8.158,23.61,12.71,37.047,12.71c4.952,0,9.504-0.284,13.907-0.559    c18.385-1.148,28.512-1.779,40.692,19.318c6.634,11.492,7.595,25.441,2.86,37.668c-12.956-2.012-24.556-9.816-31.181-21.293    l-0.226-0.4c-2.231-3.959-6.855-5.917-11.25-4.764c-4.396,1.154-7.462,5.127-7.462,9.673v54.936    c0,43.387-32.751,79.247-74.824,84.214v-41.767c14.395-4.311,24.918-17.672,24.918-33.451c0-5.523-4.477-10-10-10s-10,4.477-10,10    c0,8.226-6.692,14.918-14.918,14.918s-14.918-6.692-14.918-14.918c0-5.523-4.477-10-10-10s-10,4.477-10,10    c0,15.779,10.523,29.14,24.918,33.451v41.767c-42.074-4.967-74.824-40.827-74.824-84.214v-54.936c0-4.541-3.06-8.512-7.451-9.67    c-0.848-0.223-1.704-0.331-2.55-0.331c-3.536,0-6.893,1.883-8.7,5.071l-0.228,0.403c-6.634,11.492-18.235,19.298-31.191,21.311    C116.322,222.401,117.283,208.451,123.917,196.959z"/>
		<path d="M212.74,245.995h15.269c5.523,0,10-4.477,10-10s-4.477-10-10-10H212.74c-5.523,0-10,4.477-10,10    S207.217,245.995,212.74,245.995z"/>
		<path d="M283.994,245.995h15.269c5.523,0,10-4.477,10-10s-4.477-10-10-10h-15.269c-5.523,0-10,4.477-10,10    S278.471,245.995,283.994,245.995z"/>
		<path d="M146.008,49.476c1.789,0,3.6-0.479,5.234-1.485c4.704-2.895,6.17-9.054,3.276-13.757    c-2.896-4.705-9.055-6.17-13.757-3.276l-0.006,0.004c-4.704,2.895-6.167,9.052-3.272,13.755    C139.37,47.786,142.649,49.476,146.008,49.476z"/>
		<path d="M451.267,331.195c-4.861-2.617-10.926-0.799-13.545,4.064l-0.003,0.006c-2.618,4.862-0.797,10.924,4.065,13.542    c1.507,0.812,3.13,1.197,4.73,1.197c3.562,0,7.011-1.908,8.817-5.264C457.949,339.878,456.13,333.814,451.267,331.195z"/>
	</g>
</g>















</svg>
