<svg height="512pt" viewBox="0 0 512.26868 512" width="512pt" xmlns="http://www.w3.org/2000/svg"><path d="m80.386719 78.808594c-5.949219.789062-11.753907 2.429687-17.234375 4.867187-1.800782.890625-3.976563.390625-5.207032-1.195312-1-1.425781-2.140624-2.738281-3.414062-3.925781-.230469-1.355469-.542969-2.695313-.9375-4.011719-.449219-1.398438-.140625-2.929688.816406-4.042969.957032-1.117188 2.425782-1.652344 3.875-1.417969 8.183594.9375 15.886719 4.328125 22.101563 9.726563zm0 0" fill="#4527a0"/><path d="m503.472656 8.667969c-8.257812 6.15625-17.488281 10.886719-27.308594 13.992187-53.589843 18.519532-143.445312 17.324219-186.027343 45.738282-51.199219 34.132812-59.734375 110.933593-59.734375 110.933593-3.535156-14.332031-8.6875-28.214843-15.359375-41.386719-10.664063-21.078124-27.648438-44.03125-52.90625-52.480468-17.53125-6.425782-36.296875-8.761719-54.867188-6.824219-6.390625.753906-12.628906 2.449219-18.519531 5.035156-1.796875.890625-3.976562.390625-5.203125-1.195312-.9375-1.316407-1.996094-2.546875-3.160156-3.671875-5.949219.789062-11.753907 2.429687-17.234375 4.867187-1.800782.890625-3.976563.390625-5.207032-1.195312-1-1.425781-2.140624-2.738281-3.414062-3.925781 1.023438 7.121093.289062 14.386718-2.132812 21.164062-.742188 1.722656-1.953126 3.199219-3.5 4.265625-11.089844 8.277344-8.445313 29.523437-6.910157 37.800781.378907 2.175782-.109375 4.414063-1.367187 6.230469-6.226563 9.046875-23.292969 37.207031-2.984375 46.59375 1.609375.773437 3.296875 1.375 5.035156 1.789063 23.378906 5.804687 26.707031-8.277344 26.539063-17.832032.007812-4.28125 3.179687-7.890625 7.421874-8.449218 2.855469-.453126 5.660157-1.195313 8.363282-2.21875 3.867187-1.492188 7.46875-3.59375 10.667968-6.230469 1.945313-1.695313 4.5625-2.410157 7.101563-1.945313s4.730469 2.058594 5.953125 4.335938c6.230469 12.117187 13.398438 32.597656 2.21875 49.40625-17.066406 25.601562-8.535156 68.269531-8.535156 68.269531l-50.429688 5.714844c-13.066406 1.625-24.027344 10.625-28.160156 23.125l-12.714844 38.144531c-3.855468 11.738281-3.308594 24.476562 1.535156 35.839844l8.703126 20.394531 3.5 8.109375c1.183593 2.8125 3.789062 4.777344 6.820312 5.148438 3.03125.371093 6.03125-.910157 7.855469-3.359376l13.144531-17.492187c1.089844-1.484375 1.6875-3.277344 1.707031-5.121094-.023437-1.695312-.523437-3.355469-1.453125-4.777343-8.6875-12.96875-10.859375-29.234376-5.886718-44.03125l6.570312-19.796876c.117188-.394531.289062-.765624.511719-1.109374 1.789062-3.773438 6.097656-5.632813 10.070312-4.351563l35.667969 10.066406 6.144531 1.707031c8.625 1.914063 17.65625.21875 25.003907-4.691406 1.621093-1.109375 3.367187-2.027344 5.203124-2.730468 7.734376-3.324219 16.457032-3.507813 24.320313-.511719 21.769531 8.765625 44.566406 14.730469 67.839844 17.746093 6.882812.785157 13.824219.957032 20.738281.515626 8.578125.246093 17.003906-2.332032 23.976562-7.339844 1.109376 5.714844 2.558594 11.347656 4.097657 16.980468 1.820312 7.125 4.914062 13.859376 9.128906 19.882813 5.054687 5.792969 10.6875 11.054687 16.8125 15.703125 5.234375 4.78125 9.75 10.300781 13.394531 16.382812 7.15625 10.222657 9.082032 23.210938 5.207032 35.070313-3.113282 6.535156-8.183594 11.933594-14.507813 15.445313-36.949219 22.1875-48.296875 18.773437-56.234375 39.679687-.980469 2.625-.609375 5.566406.992188 7.863281 1.601562 2.300782 4.226562 3.667969 7.03125 3.660156h43.433593c2.949219.003907 5.6875-1.515624 7.253907-4.011718 8.789062-14.082032 17.832031-29.867188 32.511718-38.742188 6.398438-3.460937 12.382813-7.640625 17.835938-12.457031 8.203125-7.28125 12.316406-18.125 11.007812-29.015625-2.191406-6.582031-5.261718-12.839844-9.132812-18.601562-6.597656-10.640626-8.277344-23.613282-4.609375-35.585938 3.609375-7.429688 10.226562-12.957031 18.179687-15.1875 22.183594-7.425781 31.570313-46.847656 28.074219-68.351562-.40625-2.921876-1.242187-5.769532-2.476563-8.449219-1.421874-10.273438-6.851562-19.570313-15.101562-25.855469-3.265625-3.046875-6.777344-5.8125-10.496094-8.277344-25.601562-17.066406-34.136718-34.132812-17.070312-51.199218 4.375-4.171876 9.460937-7.523438 15.019531-9.898438 18.007813-8.191406 42.328125-11.265625 61.78125-24.234375 11.804687-6.664063 17.101563-20.855469 12.546875-33.621094 24.574219-11.007812 29.183594-28.332031 29.863281-37.976562v-.082031c18.175781-10.414063 18.859375-36.609376 18.09375-49.238282 6.109375-6.460937 8.964844-15.339844 7.765625-24.148437zm0 0" fill="#4527a0"/><g fill="#673ab7"><path d="m470.105469 32.816406c.769531 12.628906.085937 38.824219-18.089844 49.238282v.082031c-.683594 9.644531-5.292969 26.96875-29.867187 37.976562 4.554687 12.765625-.738282 26.957031-12.542969 33.621094-19.457031 12.96875-43.777344 16.042969-61.78125 24.234375-5.558594 2.375-10.644531 5.726562-15.019531 9.898438-17.066407 17.066406-8.535157 34.132812 17.066406 51.199218 3.722656 2.464844 7.234375 5.230469 10.496094 8.277344 8.253906 6.285156 13.683593 15.582031 15.105468 25.855469 1.234375 2.679687 2.066406 5.527343 2.472656 8.449219 3.5 21.503906-5.886718 60.925781-28.074218 68.351562-7.953125 2.230469-14.570313 7.757812-18.175782 15.1875-3.667968 11.972656-1.988281 24.945312 4.609376 35.585938 3.867187 5.761718 6.9375 12.019531 9.128906 18.601562 1.308594 10.890625-2.804688 21.734375-11.007813 29.015625-5.453125 4.816406-11.433593 8.996094-17.835937 12.457031-14.675782 8.875-23.722656 24.660156-32.511719 38.742188-1.5625 2.496094-4.304687 4.015625-7.253906 4.011718h-17.832031c-2.804688.007813-5.429688-1.359374-7.03125-3.660156-1.601563-2.296875-1.972657-5.238281-.992188-7.863281 7.9375-20.90625 19.285156-17.492187 56.234375-39.679687 6.324219-3.511719 11.394531-8.910157 14.507813-15.445313 3.875-11.859375 1.949218-24.847656-5.207032-35.070313-3.644531-6.082031-8.160156-11.601562-13.394531-16.382812-6.125-4.648438-11.757813-9.910156-16.8125-15.703125-4.214844-6.023437-7.308594-12.757813-9.128906-19.882813-1.539063-5.632812-2.988281-11.265624-4.097657-16.980468-6.972656 5.007812-15.398437 7.585937-23.976562 7.339844-6.914062.441406-13.855469.269531-20.738281-.515626-23.273438-3.015624-46.070313-8.980468-67.839844-17.746093-7.863281-2.996094-16.585937-2.8125-24.320313.511719-1.835937.703124-3.582031 1.621093-5.203124 2.730468-7.347657 4.910156-16.378907 6.605469-25.003907 4.691406l-6.144531-1.707031-35.667969-10.066406c-3.972656-1.28125-8.28125.578125-10.070312 4.351563-.222657.34375-.394531.714843-.511719 1.109374l-6.570312 19.796876c-4.972657 14.796874-2.800782 31.0625 5.886718 44.03125.929688 1.421874 1.429688 3.082031 1.453125 4.777343-.019531 1.84375-.617187 3.636719-1.707031 5.121094l-13.144531 17.492187c-1.824219 2.449219-4.824219 3.730469-7.855469 3.359376-3.03125-.371094-5.636719-2.335938-6.820312-5.148438l-3.5-8.109375-8.703126-20.394531c-4.84375-11.363282-5.390624-24.101563-1.535156-35.839844l12.714844-38.144531c4.132812-12.5 15.09375-21.5 28.160156-23.125l50.429688-5.714844s-8.53125-42.667969 8.535156-68.269531c11.179688-16.808594 4.011719-37.289063-2.21875-49.40625-1.222656-2.277344-3.414062-3.871094-5.953125-4.335938s-5.15625.25-7.101563 1.945313c-3.199218 2.636719-6.800781 4.738281-10.667968 6.230469-2.703125 1.023437-5.507813 1.765624-8.363282 2.21875-4.242187.558593-7.414062 4.167968-7.421874 8.449218.167968 9.554688-3.160157 23.636719-26.539063 17.832032-1.738281-.414063-3.425781-1.015626-5.035156-1.789063-20.308594-9.386719-3.242188-37.546875 2.984375-46.59375 1.257812-1.816406 1.746094-4.054687 1.367187-6.230469-1.535156-8.277344-4.179687-29.523437 6.910157-37.800781 1.546874-1.066406 2.757812-2.542969 3.5-4.265625 2.421874-6.777344 3.15625-14.042969 2.132812-21.164062 1.273438 1.1875 2.414062 2.5 3.414062 3.925781 1.230469 1.585937 3.40625 2.085937 5.207032 1.195312 5.480468-2.4375 11.285156-4.078125 17.234375-4.867187 1.164062 1.125 2.222656 2.355468 3.160156 3.671875 1.226563 1.585937 3.40625 2.085937 5.203125 1.195312 5.890625-2.585937 12.128906-4.28125 18.519531-5.035156 18.570313-1.9375 37.335938.398437 54.867188 6.824219 25.257812 8.449218 42.242187 31.402344 52.90625 52.480468 6.671875 13.171876 11.824219 27.054688 15.359375 41.386719 0 0 8.535156-76.800781 59.734375-110.933593 42.582031-28.414063 132.4375-27.21875 186.027343-45.738282-1.488281 3.675782-3.53125 7.101563-6.058593 10.15625zm0 0"/><path d="m99.84375 328.238281c-6.15625 2.554688-12.949219 3.148438-19.457031 1.707031l-26.28125-7.421874c1.789062-3.773438 6.097656-5.632813 10.070312-4.351563zm0 0"/><path d="m107.269531 78.640625c-6.390625.753906-12.628906 2.449219-18.519531 5.035156-1.796875.890625-3.976562.390625-5.203125-1.195312-.9375-1.316407-1.996094-2.546875-3.160156-3.671875 8.914062-1.230469 17.953125-1.289063 26.882812-.167969zm0 0"/><path d="m228.355469 339.757812c-16.210938 2.21875-44.800781.515626-92.160157-17.234374 7.734376-3.324219 16.457032-3.507813 24.320313-.511719 21.769531 8.765625 44.566406 14.730469 67.839844 17.746093zm0 0"/></g><path d="m477.613281 82.054688v.082031c-2.578125 1.515625-5.367187 2.640625-8.277343 3.328125-34.132813 8.535156-145.066407 25.601562-162.132813 51.203125l-.003906-.011719c-5.425781-8-7.027344-17.992188-4.375-27.289062 2.652343-9.292969 9.289062-16.9375 18.117187-20.867188 30.683594-13.042969 74.613282-16.589844 122.796875-28.632812 29.011719-7.253907 44.117188-17.578126 51.96875-27.050782.765625 12.628906.082031 38.824219-18.09375 49.238282zm0 0" fill="#4527a0"/><path d="m477.613281 82.136719c-.679687 9.644531-5.289062 26.96875-29.863281 37.976562-9.4375 4.078125-19.410156 6.777344-29.613281 8.019531-33.5 3.996094-65.625 15.675782-93.867188 34.132813l-17.066406-25.597656c17.066406-25.601563 128-42.667969 162.132813-51.203125 2.910156-.6875 5.699218-1.8125 8.277343-3.328125zm0 0" fill="#4527a0"/><path d="m435.203125 153.734375c-19.453125 12.96875-43.773437 16.042969-61.78125 24.234375-15.75 4.660156-29.816406 13.769531-40.507813 26.238281-2.320312 3.035157-6.382812 4.148438-9.925781 2.71875-3.542969-1.429687-5.695312-5.050781-5.253906-8.847656 1.34375-12.074219 3.53125-24.039063 6.535156-35.8125 28.242188-18.457031 60.367188-30.136719 93.867188-34.132813 10.203125-1.242187 20.175781-3.941406 29.613281-8.019531 4.554688 12.765625-.742188 26.957031-12.546875 33.621094zm0 0" fill="#4527a0"/><path d="m385.882812 247.34375h.085938c21.929688.339844 72.191406 7.339844 91.902344 59.988281 20.402344 54.414063 8.28125 119.015625 11.164062 152.15625.347656 3.648438-1.671875 7.113281-5.019531 8.605469-3.34375 1.496094-7.269531.683594-9.753906-2.011719-12.175781-13.152343-26.046875-40.820312-30.523438-99.015625-3.839843-50.261718-21.761719-74.238281-40.191406-85.417968" fill="#6a1b9a"/><path d="m307.195312 145.199219c-3.144531-.003907-6.035156-1.734375-7.515624-4.511719-1.484376-2.773438-1.320313-6.136719.425781-8.753906 14.289062-21.441406 73.402343-35.144532 137.9375-48.425782 11.980469-2.46875 22.328125-4.597656 29.222656-6.320312 1.804687-.433594 3.550781-1.082031 5.199219-1.933594.289062-.222656.59375-.421875.910156-.605468 14.242188-8.160157 14.402344-31.605469 13.8125-41.3125-.222656-4.664063 3.339844-8.640626 8.003906-8.925782 4.660156-.285156 8.683594 3.226563 9.03125 7.886719.960938 15.75-.582031 43.808594-21.347656 56.558594-.265625.210937-.542969.402343-.832031.578125-3.3125 1.960937-6.898438 3.414062-10.640625 4.3125-7.238282 1.808594-17.746094 3.972656-29.917969 6.480468-37.523437 7.722657-115.59375 23.792969-127.179687 41.171876-1.582032 2.378906-4.253907 3.804687-7.109376 3.800781zm0 0"/><path d="m324.285156 170.792969c-3.671875 0-6.933594-2.347657-8.097656-5.828125-1.164062-3.480469.03125-7.316406 2.964844-9.523438 29.367187-19.363281 62.847656-31.609375 97.777344-35.757812 9.398437-1.136719 18.582031-3.609375 27.285156-7.335938 19.386718-8.65625 24.234375-21.578125 24.890625-30.898437.214843-3.039063 2.039062-5.734375 4.78125-7.070313 2.738281-1.332031 5.984375-1.101562 8.511719.605469 2.523437 1.707031 3.949218 4.632813 3.730468 7.675781-.8125 11.441406-6.425781 32.53125-34.898437 45.242188-10.167969 4.398437-20.914063 7.320312-31.910157 8.679687-32.054687 3.894531-62.808593 15.015625-89.941406 32.519531-1.472656 1.097657-3.257812 1.691407-5.09375 1.691407zm0 0"/><path d="m302.433594 512.132812h-43.460938c-5.605468-.003906-10.847656-2.753906-14.039062-7.359374-3.191406-4.605469-3.921875-10.480469-1.960938-15.726563 6.441406-17.015625 15.617188-21.382813 30.820313-28.625 9.933593-4.605469 19.617187-9.726563 29.019531-15.339844 4.773438-2.621093 8.640625-6.632812 11.085938-11.5 2.65625-9.382812.890624-19.464843-4.796876-27.386719-3.171874-5.359374-7.136718-10.207031-11.757812-14.382812-1.65625-1.503906-3.367188-2.894531-5.0625-4.285156-4.847656-3.644532-9.183594-7.921875-12.894531-12.71875-4.828125-6.839844-8.371094-14.5-10.457031-22.605469-.636719-2.296875-1.226563-4.535156-1.769532-6.710937-15.4375 5.160156-47.835937 7.914062-109.664062-15.496094-7.164063-2.738282-15.199219-1.894532-21.640625 2.265625l-.175781.117187c-9.273438 6.160156-20.65625 8.285156-31.53125 5.886719l-42.261719-11.902344-6.78125 19.808594c-4.144531 12.296875-2.332031 25.820313 4.898437 36.597656 4.007813 6.019531 3.789063 13.910157-.546875 19.703125l-13.125 17.5c-3.65625 4.875-9.632812 7.429688-15.683593 6.703125-6.050782-.726562-11.253907-4.625-13.652344-10.222656l-12.214844-28.496094c-5.707031-13.300781-6.328125-28.238281-1.742188-41.96875l12.714844-38.152343c5.238282-15.558594 18.902344-26.757813 35.1875-28.84375l41.742188-4.742188c-1.664063-14.890625-2.746094-44.671875 11.152344-65.515625 8.546874-12.816406 3.238281-29.230469-2.726563-40.738281-6.535156 5.664062-14.558594 9.332031-23.117187 10.570312.570312 8.566406-2.851563 16.914063-9.265626 22.617188-8.285156 5.582031-18.730468 6.878906-28.125 3.492187-8.777343-1.523437-16.15625-7.453125-19.527343-15.699219-5.851563-15.464843 5.332031-35.308593 12.515625-45.761718-2.359375-12.546875-4.148438-35.414063 10.1875-46.09375.261718-.175782.503906-.382813.714844-.617188 2.253906-6.316406 2.5625-13.164062.882812-19.65625-1.234375-4.195312-.242188-8.726562 2.636719-12.019531 2.878906-3.289063 7.238281-4.878906 11.558593-4.214844 10.878907 1.25 21 6.203125 28.664063 14.027344 11.527344-4.453125 37.320313-10.363281 76.601563 2.730469 33.472656 11.160156 53.265624 44.421875 63.8125 69.589844 7.8125-26.648438 24.066406-63.867188 56.753906-85.660157 26.859375-17.902343 70.03125-24.546875 111.78125-30.96875 39.890625-6.132812 81.140625-12.476562 100.957031-28.328125 2.269531-1.816406 5.304687-2.351562 8.058594-1.421875 2.753906.929688 4.84375 3.195313 5.550781 6.011719 1.925781 11.441406-1.566406 23.128906-9.453125 31.640625-10.960937 13.226563-29.960937 23.277344-56.488281 29.910156-19.105469 4.78125-37.140625 8.15625-54.574219 11.425781-43.429687 8.136719-77.734375 14.566407-94.273437 36.617188-1.828126 2.4375-4.820313 3.714844-7.847657 3.351562-3.027343-.363281-5.628906-2.316406-6.824219-5.121093-1.199218-2.800781-.808593-6.03125 1.019532-8.472657 20.519531-27.355468 59.5625-34.675781 104.777344-43.148437 17.195312-3.226563 34.96875-6.554687 53.578124-11.207031 22.609376-5.652344 39.023438-14.027344 47.472657-24.21875.238281-.292969.46875-.585938.695312-.871094-23.800781 10.511719-56.207031 15.496094-90.050781 20.699219-39.917969 6.144531-81.191406 12.488281-104.910156 28.300781-47.339844 31.5625-55.902344 104.046875-55.984375 104.773438-.460938 4.148437-3.851563 7.355468-8.019531 7.582031-4.164063.226562-7.886719-2.589844-8.792969-6.664063-.160157-.722656-16.683594-72.3125-62.632813-87.628906-37.441406-12.488281-59.433594-5.644531-67.152344-2.125-5.539062 2.605469-12.152343.890625-15.726562-4.078125-3.414062-4.226563-8.121094-7.210937-13.398438-8.492187.929688 8.007812-.015624 16.117187-2.753906 23.699218-1.261718 3.335938-3.503906 6.210938-6.433594 8.246094-4.835937 3.601562-6.253906 15.152344-3.617187 29.441406.816406 4.398438-.15625 8.945313-2.707031 12.625-8.617188 12.535156-12.78125 24.332032-10.617188 30.050782.335938.890624 1.367188 3.605468 7.707032 5.1875 4.304687 1.699218 9.113281 1.597656 13.34375-.277344 2.46875-1.964844 2.632812-7 2.59375-9.070313-.121094-8.535156 6.113281-15.832031 14.5625-17.046875 5.480468-.785156 10.640624-3.058594 14.914062-6.574218 3.984375-3.402344 9.3125-4.789063 14.453125-3.761719 5.023437.984375 9.320313 4.210937 11.660156 8.761719 11.410157 22.035156 12.035157 42.652343 1.769531 58.050781-14.867187 22.304687-7.339843 61.476562-7.265624 61.867187.464843 2.339844-.074219 4.769532-1.480469 6.695313-1.40625 1.929687-3.554688 3.179687-5.925781 3.449219l-50.40625 5.726562c-9.734376 1.277344-17.890626 7.988281-21.015626 17.296875l-12.714843 38.152344c-3.257813 9.765625-2.816407 20.386719 1.238281 29.847656l12.210938 28.5 13.125-17.496094c-10.175782-15.152343-12.71875-34.175781-6.886719-51.472656l6.613281-19.855469c2.882812-8.8125 12.308594-13.679687 21.164062-10.925781l41.628907 11.738281c6.140625 1.25 12.523437.011719 17.75-3.441406l.171875-.121094c11.042968-7.300781 24.929687-8.835937 37.304687-4.125 80.964844 30.65625 103.539063 12.800782 103.75 12.617188 2.34375-1.976563 5.546875-2.601563 8.460938-1.648438 2.867187.9375 5.027343 3.316406 5.683593 6.257813 1.027344 5.148437 2.320313 10.515625 3.945313 16.402343 1.550781 6.128907 4.199219 11.929688 7.816406 17.117188 2.875 3.585938 6.191407 6.792969 9.875 9.539062 1.917969 1.566407 3.839844 3.144532 5.714844 4.835938 5.910156 5.347656 10.980469 11.558594 15.03125 18.421875 8.753906 12.480469 10.894531 28.433594 5.738281 42.777344-3.785156 8.199219-10.082031 14.980469-17.972656 19.363281-9.867188 5.898438-20.035156 11.277344-30.464844 16.113281-13.96875 6.65625-18.183594 8.664063-22.195312 19.257813l43.5-.023438 1.84375-2.976562c7.953125-15.335938 19.460937-28.546875 33.5625-38.527344 5.824218-3.175781 11.28125-6.984375 16.273437-11.355469 6.0625-5.339843 9.230469-13.238281 8.535157-21.285156-1.015626-3.507813-2.601563-6.820313-4.695313-9.808594-1.332031-2.203125-2.644531-4.386719-3.726563-6.585937-8.230468-16.6875-9.828124-31.058594-4.742187-42.714844 4.5625-9.65625 13.039063-16.902344 23.285156-19.910156 16.71875-5.589844 25.488281-39.632813 22.359375-58.878906-.28125-2.113282-.871094-4.175782-1.746094-6.121094-.554687-1.15625-.84375-2.421875-.84375-3.703125-1.617187-7.792969-5.996093-14.742188-12.335937-19.558594-2.941406-2.75-6.105469-5.253906-9.464844-7.472656-18.664062-12.445313-28.351562-24.675781-29.613281-37.394531-.640625-10.238282 3.515625-20.195313 11.246094-26.941407 11.953125-9.917969 26.140625-16.78125 41.335937-19.992187 12.921875-3.277344 25.304688-8.398438 36.761719-15.207032 8.636719-4.570312 12.542969-14.835937 9.132812-23.988281-1.398437-4.5 1.117188-9.285156 5.617188-10.683593 4.5-1.398438 9.28125 1.117187 10.679688 5.617187 5.617187 16.375-1.050782 34.445313-15.957032 43.25-12.828125 7.753906-26.722656 13.59375-41.242187 17.332031-12.457031 2.605469-24.167969 7.984375-34.261719 15.738282-4.007812 3.203124-6.335938 8.0625-6.324219 13.191406.492188 4.960937 4.71875 13.296875 22.089844 24.875 4.121094 2.730468 8.007813 5.796875 11.617187 9.171875 9.246094 7.550781 15.496094 18.152343 17.628907 29.902343 1.214843 2.988282 2.0625 6.117188 2.53125 9.3125 4.175781 25.644532-6.910157 68.738282-33.800781 77.738282-5.613282 1.578125-10.332032 5.390625-13.054688 10.542968-2.980469 6.835938-1.5 16.371094 4.40625 28.34375.871094 1.769532 1.945312 3.519532 3.015625 5.289063 3.226563 4.714844 5.558594 9.980469 6.878906 15.539063 1.863281 13.726562-3.195312 27.484374-13.511719 36.726562-5.785156 5.191406-12.140624 9.707031-18.945312 13.457031-11.851562 8.675781-21.503906 20.007813-28.183594 33.089844l-1.902344 3.0625c-3.101562 4.992187-8.570312 8.019531-14.449218 7.992187zm0 0"/><path d="m494.9375 486.53125c-5.175781 0-50.824219-3.332031-59.707031-118.808594-3.027344-39.582031-15.175781-66.085937-36.109375-78.777344-3.980469-2.464843-5.234375-7.675781-2.804688-11.679687 2.425782-4.003906 7.628906-5.304687 11.65625-2.914063 25.90625 15.710938 40.804688 46.683594 44.273438 92.0625 4.371094 56.84375 17.644531 82.363282 28.296875 93.804688-.695313-12.761719-.648438-25.554688.140625-38.3125 1.28125-33.46875 2.871094-75.117188-10.804688-111.578125-18.066406-48.253906-64.792968-54.152344-84.046875-54.449219-4.710937-.011718-8.519531-3.84375-8.507812-8.558594.015625-4.710937 3.847656-8.519531 8.558593-8.507812h.085938c22.882812.351562 78.144531 7.4375 99.894531 65.53125 14.875 39.664062 13.214844 83.21875 11.875 118.210938-.828125 21.726562-1.6875 44.191406 3.410157 49.59375 2.335937 2.476562 2.972656 6.105468 1.625 9.234374-1.351563 3.125-4.429688 5.148438-7.835938 5.148438zm0 0"/><path d="m76.804688 128.132812c0 4.714844-3.820313 8.535157-8.535157 8.535157-4.710937 0-8.53125-3.820313-8.53125-8.535157 0-4.710937 3.820313-8.53125 8.53125-8.53125 4.714844 0 8.535157 3.820313 8.535157 8.53125zm0 0"/><path d="m324.261719 264.667969c-4.066407-.003907-7.5625-2.875-8.363281-6.859375-8.582032-42.921875 9.285156-71.652344 54.628906-87.839844 4.441406-1.582031 9.324218.730469 10.910156 5.171875 1.582031 4.4375-.730469 9.320313-5.171875 10.90625-37.5 13.382813-50.546875 33.84375-43.632813 68.410156.925782 4.621094-2.070312 9.117188-6.691406 10.042969-.554687.109375-1.117187.164062-1.679687.167969zm0 0"/><path d="m97.058594 169.257812c-3.609375.003907-6.828125-2.261718-8.046875-5.65625-1.214844-3.394531-.164063-7.191406 2.625-9.476562 7.09375-6.242188 13.703125-13.007812 19.78125-20.242188 3.082031-3.5625 8.472656-3.953124 12.035156-.871093 3.566406 3.085937 3.953125 8.472656.871094 12.039062-6.699219 7.988281-14.015625 15.4375-21.882813 22.28125-1.515625 1.246094-3.421875 1.925781-5.382812 1.925781zm0 0"/></svg>